# xmcd
#
# Track frame offsets:
#	150
#	15242
#	33468
#	54305
#	71177
#	93735
#	113915
#	132102
#	152090
#	168306
#	184628
#	200792
#	221758
#	258091
#
# Disc length: 3988 seconds
#
# Revision: 6
# Processed by: cddbd v1.5.2PL0 Copyright (c) Steve Scherf et al.
# Submitted via: EasyCDDAExtractor 15.3.0.1
#
DISCID=c20f920e
DTITLE=Anastacia - Not That Kind (US Edition)
DYEAR=2001
DGENRE=Pop
TTITLE0=Not That Kind
TTITLE1=I'm Outta Love
TTITLE2=Cowboys and Kisses
TTITLE3=Why'd You Lie To Me
TTITLE4=Who's Gonna Stop The Rain
TTITLE5=I Ask Of You
TTITLE6=Don't Cha Wanna
TTITLE7=Late Last Night
TTITLE8=Made For Lovin' You
TTITLE9=Black Roses
TTITLE10=Yo Trippin'
TTITLE11=One More Chance
TTITLE12=Same Old Story
TTITLE13=Data Track
EXTD=
EXTT0=
EXTT1=
EXTT2=
EXTT3=
EXTT4=
EXTT5=
EXTT6=
EXTT7=
EXTT8=
EXTT9=
EXTT10=
EXTT11=
EXTT12=
EXTT13=
PLAYORDER=
